# xmcd CD database file
#
# Track frame offsets:
#	150
#	657
#	18334
#	31570
#	52400
#	76238
#	94325
#	109211
#	127619
#	146071
#	162710
#	186017
#	205750
#	229177
#
# Disc length: 3369 seconds
#
# Revision: 1
# Processed by: cddbd v1.5.1PL2 Copyright (c) Steve Scherf et al.
# Submitted via: CDex 1.51
#
DISCID=b30d270e
DTITLE=Bonus Track - Spaceman Blues
DYEAR=2006
DGENRE=Blues
TTITLE0=Intro
TTITLE1=Spaceman Blues
TTITLE2=Rude Mood
TTITLE3=Hideaway
TTITLE4=Hope Song
TTITLE5=Song For a Liar
TTITLE6=The Loop
TTITLE7=Don't Dog Me
TTITLE8=Alight On One's Feet
TTITLE9=Jazz'n'Bonus
TTITLE10=Little Town
TTITLE11=Bad Blood Blues
TTITLE12=Sweet Caress
TTITLE13=11's Blues
EXTD=YEAR: 2006
EXTT0=
EXTT1=
EXTT2=
EXTT3=
EXTT4=
EXTT5=
EXTT6=
EXTT7=
EXTT8=
EXTT9=
EXTT10=
EXTT11=
EXTT12=
EXTT13=
PLAYORDER=
